<svg width="24" height="24" viewBox="0 0 24 24" fill="none" xmlns="http://www.w3.org/2000/svg">
<path d="M23.0937 21.3253L18.0937 16.3193C17.9318 16.1533 17.7515 16.0063 17.5562 15.8813L16.3062 15.0177C18.8774 11.8325 18.9013 7.28873 16.3637 4.07656C13.8262 0.864391 9.40449 -0.158948 5.71637 1.61239C2.02825 3.38373 0.0580431 7.47701 0.97216 11.4689C1.88628 15.4607 5.44076 18.2858 9.53125 18.2716C11.5163 18.2722 13.4426 17.597 14.9937 16.3568L15.9312 17.6083C16.0424 17.7695 16.168 17.9203 16.3062 18.0589L21.3062 23.0649C21.4236 23.1834 21.5833 23.25 21.75 23.25C21.9166 23.25 22.0764 23.1834 22.1937 23.0649L23.0687 22.1888C23.306 21.9539 23.317 21.5737 23.0937 21.3253ZM9.53125 15.7686C6.07947 15.7686 3.28125 12.967 3.28125 9.51108C3.28125 6.05514 6.07947 3.25355 9.53125 3.25355C12.983 3.25355 15.7812 6.05514 15.7812 9.51108C15.7812 11.1707 15.1228 12.7623 13.9507 13.9358C12.7786 15.1093 11.1888 15.7686 9.53125 15.7686Z" fill="#333333"/>
</svg>
