<svg width="25" height="19" viewBox="0 0 25 19" fill="none" xmlns="http://www.w3.org/2000/svg">
<path d="M0 0H25V18.75H0V0Z" fill="#000066"/>
<path fill-rule="evenodd" clip-rule="evenodd" d="M11.7109 15.332L10.0039 15.4805L10.2383 17.1758L9.0625 15.9375L7.88672 17.1758L8.12109 15.4805L6.41406 15.332L7.88672 14.4609L6.9375 13.0352L8.53906 13.6406L9.0625 12.0117L9.58984 13.6406L11.1914 13.0352L10.2422 14.4609M19.0078 16.8945L18.5938 16.2773L19.2891 16.5391L19.5156 15.832L19.7422 16.5391L20.4375 16.2773L20.0273 16.8945L20.668 17.2734L19.9258 17.3398L20.0273 18.0781L19.5195 17.5352L19.0039 18.0781L19.1055 17.3398L18.3633 17.2773M19.0039 5.875L18.5938 5.25781L19.2891 5.51953L19.5156 4.8125L19.7422 5.51953L20.4375 5.25781L20.0273 5.875L20.668 6.25781L19.9258 6.32031L20.0273 7.05859L19.5195 6.51953L19.0039 7.05469L19.1055 6.32031L18.3633 6.25781M14.875 10.3516L14.4648 9.73438L15.1602 9.99609L15.3867 9.28906L15.6172 9.99609L16.3125 9.73438L15.8984 10.3516L16.5391 10.7305L15.7969 10.7969L15.9023 11.5352L15.3867 10.9922L14.8789 11.5352L14.9766 10.7969L14.2344 10.7344M22.6836 9.25L22.2656 8.63281L22.9609 8.89453L23.1875 8.1875L23.418 8.89453L24.1133 8.63281L23.7031 9.25L24.3398 9.62891L23.5977 9.69531L23.6992 10.4297L23.1914 9.89062L22.6758 10.4297L22.7773 9.69531L22.0352 9.62891M21.1719 12.5L20.7695 12.7539L20.8828 12.2891L20.5195 11.9844L20.9922 11.9453L21.1719 11.5078L21.3555 11.9492L21.8281 11.9844L21.4648 12.2891L21.5781 12.7539" fill="white"/>
<path d="M0 0H12.5V9.375H0V0Z" fill="#000066"/>
<path d="M1.46484 0L6.23047 3.53516L10.9766 0H12.5V1.21094L7.8125 4.70703L12.5 8.18359V9.375H10.9375L6.25 5.87891L1.58203 9.375H0V8.20312L4.66797 4.72656L0 1.25V0H1.46484Z" fill="white"/>
<path d="M8.28125 5.48828L12.5 8.59375V9.375L7.20703 5.48828H8.28125ZM4.6875 5.87891L4.80469 6.5625L1.05469 9.375H0L4.6875 5.87891ZM12.5 0V0.0585938L7.63672 3.73047L7.67578 2.87109L11.5234 0H12.5ZM0 0L4.66797 3.4375H3.49609L0 0.820312V0Z" fill="#C8102E"/>
<path d="M4.70703 0V9.375H7.83203V0H4.70703ZM0 3.125V6.25H12.5V3.125H0Z" fill="white"/>
<path d="M0 3.76953V5.64453H12.5V3.76953H0ZM5.33203 0V9.375H7.20703V0H5.33203Z" fill="#C8102E"/>
</svg>
