<svg width="25" height="19" viewBox="0 0 25 19" fill="none" xmlns="http://www.w3.org/2000/svg">
<path fill-rule="evenodd" clip-rule="evenodd" d="M0 0H25V18.75H0V0Z" fill="#229E45"/>
<path fill-rule="evenodd" clip-rule="evenodd" d="M12.5547 17.0312L24.332 9.38672L12.4844 1.71875L0.667969 9.40234L12.5547 17.0312Z" fill="#F8E509"/>
<path fill-rule="evenodd" clip-rule="evenodd" d="M17.6875 9.375C17.6875 12.1211 15.457 14.3477 12.7031 14.3477C11.719 14.3461 10.7575 14.0528 9.94002 13.5049C9.12257 12.9569 8.48594 12.1789 8.11058 11.2692C7.73523 10.3595 7.63802 9.35894 7.83124 8.39399C8.02446 7.42904 8.49944 6.54304 9.19612 5.848C9.89281 5.15295 10.7799 4.68006 11.7453 4.48911C12.7107 4.29816 13.7111 4.39773 14.6199 4.77522C15.5287 5.15271 16.3052 5.79118 16.8512 6.60992C17.3973 7.42865 17.6883 8.39089 17.6875 9.375Z" fill="#2B49A3"/>
<path fill-rule="evenodd" clip-rule="evenodd" d="M11.0664 12.3555L10.9102 12.2656L10.7539 12.3438L10.7891 12.168L10.6641 12.0352L10.8398 12.0156L10.9258 11.8594L11 12.0234L11.1719 12.0547L11.043 12.1719M14.4023 13.1992L14.25 13.1094L14.0937 13.1875L14.125 13.0117L14.0039 12.8828L14.1797 12.8633L14.2617 12.7031L14.3398 12.8672L14.5117 12.8984L14.3789 13.0195M12.9648 11.8477L12.832 11.7695L12.6953 11.8398L12.7266 11.6875L12.6172 11.5742L12.7734 11.5586L12.8437 11.418L12.9062 11.5625L13.0586 11.5898L12.9414 11.6953M16.3398 11.3633L16.207 11.2852L16.0703 11.3555L16.1016 11.2031L15.9961 11.0938L16.1484 11.0781L16.2188 10.9414L16.2812 11.082L16.4297 11.1094L16.3164 11.2109M12.9062 10.3516L12.75 10.2656L12.5937 10.3437L12.625 10.1641L12.5039 10.0352L12.6797 10.0156L12.7617 9.85547L12.8398 10.0195L13.0117 10.0508L12.8789 10.1758M8.79297 8.80859L8.63672 8.72266L8.48047 8.80078L8.51953 8.62109L8.39063 8.49219L8.57031 8.47266L8.64844 8.3125L8.72656 8.47656L8.89844 8.50781L8.76953 8.62891M9.28906 10.8633L9.13281 10.7734L8.97656 10.8516L9.01172 10.6758L8.88672 10.5469L9.0625 10.5234L9.14453 10.3672L9.22266 10.5313L9.39453 10.5625L9.26562 10.6836M14.4219 8.05469L14.2812 7.97656L14.1406 8.04688L14.1719 7.89063L14.0625 7.77344L14.2187 7.75391L14.293 7.61328L14.3594 7.76172L14.5156 7.78906L14.3984 7.89453M14.1367 9.39062L14.0312 9.32813L13.918 9.38281L13.9414 9.25781L13.8555 9.16797L13.9805 9.15234L14.0391 9.04297L14.0898 9.16016L14.207 9.17969L14.1211 9.26563M8.56641 11.2344L8.46094 11.1758L8.35547 11.2266L8.37891 11.1094L8.29688 11.0234L8.41406 11.0078L8.46875 10.9023L8.51953 11.0117L8.63672 11.0352L8.54688 11.1133M16.3672 11.7109L16.2812 11.668L16.1953 11.707L16.2148 11.6172L16.1484 11.5547L16.2422 11.543L16.2891 11.4648L16.3281 11.543L16.4258 11.5625L16.3516 11.6211" fill="#FFFFEF"/>
<path fill-rule="evenodd" clip-rule="evenodd" d="M8.56641 11.2344L8.46094 11.1758L8.35547 11.2266L8.37891 11.1094L8.29688 11.0234L8.41406 11.0078L8.46875 10.9023L8.51953 11.0117L8.63672 11.0352L8.54688 11.1133" fill="#FFFFEF"/>
<path fill-rule="evenodd" clip-rule="evenodd" d="M8.56641 11.2344L8.46094 11.1758L8.35547 11.2266L8.37891 11.1094L8.29688 11.0234L8.41406 11.0078L8.46875 10.9023L8.51953 11.0117L8.63672 11.0352L8.54688 11.1133M10.1992 11.2305L10.0977 11.1758L9.99219 11.2266L10.0156 11.1094L9.93359 11.0234L10.0508 11.0078L10.1055 10.9023L10.1563 11.0117L10.2734 11.0312L10.1836 11.1133M9.99609 11.7773L9.89453 11.7188L9.78906 11.7734L9.8125 11.6562L9.73047 11.5664L9.84766 11.5508L9.90234 11.4453L9.95313 11.5547L10.0703 11.5781L9.98047 11.6562M13.3945 10.7891L13.293 10.7266L13.1836 10.7813L13.207 10.6641L13.1289 10.5742L13.2461 10.5625L13.3008 10.457L13.3477 10.5664L13.4648 10.5859L13.3789 10.668M12.3984 10.7852L12.293 10.7266L12.1875 10.7813L12.2109 10.6641L12.1328 10.5742L12.25 10.5625L12.3047 10.4531L12.3516 10.5664L12.4688 10.5859L12.3828 10.668M9.69531 10.4414L9.62891 10.4023L9.5625 10.4336L9.57812 10.3594L9.52734 10.3047L9.60156 10.2969L9.63281 10.2305L9.66406 10.3008L9.73828 10.3125L9.68359 10.3633M16.2383 12.1367L16.1367 12.0781L16.0312 12.1328L16.0547 12.0156L15.9727 11.9258L16.0898 11.9102L16.1445 11.8047L16.1953 11.9141L16.3125 11.9375L16.2227 12.0156M15.4102 12.25L15.3242 12.1953L15.2344 12.2422L15.2539 12.1406L15.1875 12.0703L15.2852 12.0586L15.332 11.9688L15.3711 12.0625L15.4687 12.0781L15.3945 12.1484M15.8008 12.2383L15.7227 12.1914L15.6406 12.2305L15.6562 12.1406L15.5938 12.0742L15.6836 12.0625L15.7266 11.9844L15.7656 12.0625L15.8555 12.082L15.7891 12.1445M16.9258 11.2539L16.8477 11.2148L16.7695 11.2539L16.7891 11.1641L16.7266 11.0977L16.8164 11.0859L16.8555 11.0078L16.8945 11.0898L16.9766 11.1055L16.9141 11.168M15.3984 12.8008L15.3008 12.7461L15.1953 12.793L15.2188 12.6836L15.1406 12.6055L15.2578 12.5938L15.3086 12.4961L15.3555 12.5977L15.4727 12.6172L15.3828 12.6914M15.4062 13.2461L15.3125 13.1914L15.2188 13.2422L15.2422 13.1328L15.168 13.0547L15.2734 13.0391L15.3203 12.9414L15.3633 13.043L15.4687 13.0625L15.3906 13.1406M14.6484 12.2383L14.5742 12.1914L14.4961 12.2305L14.5117 12.1445L14.4531 12.0781L14.5391 12.0703L14.5781 11.9922L14.6172 12.0703L14.7031 12.0859L14.6406 12.1484M13.9453 12.2383L13.8672 12.1914L13.7891 12.2305L13.8086 12.1445L13.7461 12.0781L13.8359 12.0703L13.875 11.9922L13.9141 12.0703L13.9961 12.0859L13.9336 12.1484M12.7461 11.1875L12.668 11.1445L12.5898 11.1836L12.6094 11.0938L12.5469 11.0312L12.6328 11.0195L12.6719 10.9414L12.7109 11.0195L12.7969 11.0391L12.7344 11.0977M12.8789 13.3242L12.8164 13.2891L12.7461 13.3242L12.7617 13.2461L12.7109 13.1914L12.7852 13.1836L12.8203 13.1172L12.8516 13.1875L12.9258 13.1992L12.8711 13.25M11.0664 9.86719L10.9102 9.77734L10.7539 9.85547L10.7891 9.67969L10.6641 9.55078L10.8398 9.52734L10.9258 9.37109L11 9.53516L11.1719 9.56641L11.043 9.6875" fill="#FFFFEF"/>
<path fill-rule="evenodd" clip-rule="evenodd" d="M17.3594 11.1641C17.4561 10.913 17.5319 10.6543 17.5859 10.3907C14.9375 8.06646 11.9883 6.87505 8.26172 7.12115C8.12656 7.38267 8.01543 7.65593 7.92969 7.93755C12.3437 7.51568 15.5859 9.4688 17.3594 11.1641Z" fill="white"/>
<path d="M16.1719 9.85937L16.2617 9.91016C16.2483 9.93668 16.2442 9.96694 16.25 9.99609C16.2592 10.0244 16.2787 10.0481 16.3047 10.0625C16.332 10.082 16.3594 10.0937 16.3828 10.0898C16.4062 10.0898 16.4219 10.0781 16.4336 10.0625C16.4404 10.0521 16.4432 10.0396 16.4414 10.0273C16.4382 10.0129 16.4315 9.9995 16.4219 9.98828C16.4141 9.97656 16.3945 9.94922 16.3633 9.91797C16.3312 9.88482 16.3071 9.84472 16.293 9.80078C16.2832 9.76752 16.2857 9.73187 16.3001 9.70033C16.3144 9.66878 16.3396 9.64343 16.3711 9.62891C16.3995 9.61705 16.4309 9.61432 16.4609 9.62109C16.4977 9.62955 16.5322 9.64551 16.5625 9.66797C16.6172 9.70703 16.6523 9.74609 16.6641 9.79297C16.6695 9.81489 16.6702 9.83771 16.6661 9.85993C16.6621 9.88214 16.6534 9.90325 16.6406 9.92187L16.5469 9.86328C16.5586 9.83984 16.5625 9.81641 16.5547 9.79687C16.5508 9.77734 16.5352 9.75781 16.5078 9.74219C16.4878 9.72605 16.4632 9.7165 16.4375 9.71484C16.4304 9.71461 16.4234 9.7163 16.4172 9.71974C16.411 9.72318 16.4059 9.72824 16.4023 9.73437C16.3945 9.74609 16.3945 9.75781 16.3984 9.77344C16.4023 9.78906 16.4219 9.82031 16.4609 9.85937C16.5 9.89844 16.5234 9.93359 16.5391 9.95703C16.553 9.98263 16.5593 10.0117 16.5572 10.0408C16.5552 10.0699 16.5448 10.0977 16.5273 10.1211C16.5091 10.1476 16.4832 10.1681 16.4531 10.1797C16.4238 10.1932 16.3911 10.1973 16.3594 10.1914C16.3242 10.1836 16.2891 10.168 16.25 10.1406C16.1914 10.1016 16.1562 10.0586 16.1445 10.0117C16.1318 9.95857 16.1402 9.90255 16.168 9.85547L16.1719 9.85937ZM15.7187 9.5625L15.8164 9.61328C15.8043 9.64026 15.8016 9.6705 15.8086 9.69922C15.8186 9.72603 15.838 9.74826 15.8633 9.76172C15.8945 9.78125 15.918 9.78906 15.9414 9.78516C15.9648 9.78516 15.9805 9.77344 15.9922 9.75391C15.9981 9.74461 16.0009 9.73364 16 9.72266C16 9.71094 15.9922 9.69531 15.9805 9.68359C15.9605 9.65944 15.9396 9.63599 15.918 9.61328C15.875 9.57031 15.8477 9.53516 15.8398 9.50391C15.8335 9.4838 15.8315 9.46255 15.8342 9.44163C15.8369 9.42071 15.8442 9.40063 15.8555 9.38281C15.8703 9.35871 15.8921 9.33965 15.918 9.32812C15.9448 9.31575 15.9747 9.31167 16.0039 9.31641C16.04 9.32249 16.0746 9.33577 16.1055 9.35547C16.1641 9.39453 16.1992 9.43359 16.2109 9.47656C16.2181 9.49852 16.2203 9.52175 16.2176 9.54468C16.215 9.5676 16.2073 9.58967 16.1953 9.60937L16.0977 9.55469C16.1094 9.52734 16.1133 9.50781 16.1055 9.48828C16.0977 9.46875 16.082 9.44922 16.0547 9.43359C16.0331 9.41808 16.0071 9.40987 15.9805 9.41016C15.9741 9.41059 15.9678 9.4126 15.9624 9.416C15.9569 9.41941 15.9524 9.42411 15.9492 9.42969C15.9414 9.44141 15.9414 9.45312 15.9453 9.46875C15.9492 9.48437 15.9727 9.51562 16.0117 9.55469C16.0508 9.59375 16.0781 9.625 16.0898 9.64844C16.1055 9.67293 16.1138 9.7014 16.1138 9.73047C16.1138 9.75954 16.1055 9.788 16.0898 9.8125C16.073 9.83975 16.0486 9.86148 16.0195 9.875C15.9902 9.88849 15.9575 9.89258 15.9258 9.88672C15.8856 9.87992 15.8471 9.86533 15.8125 9.84375C15.762 9.81683 15.7231 9.77237 15.7031 9.71875C15.688 9.6666 15.6936 9.61063 15.7187 9.5625ZM15.1641 9.41406L15.4492 8.94531L15.793 9.16016L15.7461 9.23828L15.4961 9.08203L15.4336 9.1875L15.668 9.33203L15.6172 9.41016L15.3828 9.26562L15.3047 9.39453L15.5664 9.55078L15.5195 9.62891L15.168 9.41406H15.1641ZM14.3555 8.75L14.3984 8.67187L14.6094 8.77734L14.5117 8.97266C14.4805 8.98047 14.4414 8.98437 14.3945 8.98047C14.3495 8.97551 14.3058 8.96226 14.2656 8.94141C14.2184 8.91838 14.178 8.88336 14.1484 8.83984C14.1216 8.79942 14.1079 8.75164 14.1094 8.70312C14.1114 8.65262 14.1247 8.60322 14.1484 8.55859C14.1719 8.51162 14.2068 8.47132 14.25 8.44141C14.2913 8.41286 14.3404 8.39784 14.3906 8.39844C14.4297 8.39844 14.4687 8.41016 14.5156 8.4375C14.5781 8.46484 14.6172 8.50391 14.6367 8.54688C14.657 8.58953 14.6612 8.6381 14.6484 8.68359L14.543 8.65234C14.5494 8.62618 14.5467 8.59859 14.5352 8.57422C14.5234 8.55078 14.5039 8.53516 14.4727 8.51953C14.4544 8.50914 14.4342 8.50272 14.4134 8.5007C14.3925 8.49868 14.3714 8.5011 14.3516 8.50781C14.3125 8.51953 14.2773 8.55469 14.25 8.60937C14.2227 8.66406 14.2109 8.71484 14.2227 8.75781C14.2281 8.77819 14.2378 8.79714 14.2513 8.81334C14.2648 8.82953 14.2817 8.84258 14.3008 8.85156C14.3203 8.86328 14.3437 8.87109 14.3672 8.87109C14.3905 8.87463 14.4142 8.87463 14.4375 8.87109L14.4687 8.80859L14.3555 8.75ZM10.832 7.87891L10.9102 7.33203L11.0742 7.35937L11.1172 7.74219L11.2695 7.39062L11.4336 7.41406L11.3555 7.95313L11.25 7.9375L11.3164 7.51172L11.1445 7.92188L11.0391 7.90625L10.9961 7.46484L10.9336 7.89453L10.832 7.87891ZM10.2812 7.8125L10.332 7.26562L10.7344 7.30469L10.7266 7.39844L10.4336 7.37109L10.4219 7.48828L10.6953 7.51562L10.6836 7.60938L10.4102 7.58203L10.3984 7.73047L10.7031 7.75781L10.6953 7.85156L10.2812 7.8125Z" fill="#309E3A"/>
<path d="M8.45698 7.47266C8.45698 7.41406 8.4687 7.37109 8.48433 7.33203C8.49802 7.30425 8.51654 7.27912 8.53902 7.25781C8.55905 7.2376 8.58297 7.22166 8.60933 7.21094C8.64839 7.19922 8.68745 7.19141 8.72652 7.19141C8.80855 7.19141 8.87105 7.22266 8.92183 7.26953C8.946 7.29939 8.96398 7.33377 8.97471 7.37066C8.98544 7.40755 8.98871 7.44621 8.98433 7.48438C8.98433 7.57031 8.95698 7.64062 8.9062 7.69141C8.88011 7.71553 8.84924 7.7339 8.8156 7.74534C8.78195 7.75678 8.74628 7.76103 8.71089 7.75781C8.67598 7.75817 8.64135 7.75142 8.60912 7.73799C8.57689 7.72456 8.54772 7.70473 8.52339 7.67969C8.47478 7.62216 8.45091 7.54773 8.45698 7.47266Z" fill="#309E3A"/>
<path d="M8.57031 7.47261C8.57031 7.5312 8.58203 7.57807 8.60938 7.61323C8.63672 7.64448 8.67188 7.66401 8.71875 7.66401C8.73903 7.66543 8.75937 7.66231 8.77829 7.65488C8.79721 7.64745 8.81424 7.63589 8.82813 7.62104C8.85547 7.58979 8.86719 7.54292 8.87109 7.47651C8.87109 7.41401 8.86328 7.36714 8.83203 7.33589C8.81931 7.32014 8.80325 7.30742 8.78501 7.29864C8.76677 7.28986 8.74681 7.28523 8.72656 7.28511C8.70601 7.28445 8.68557 7.28831 8.66667 7.2964C8.64778 7.3045 8.63088 7.31665 8.61719 7.33198C8.58594 7.36323 8.57422 7.41011 8.57031 7.47261Z" fill="#F7FFFF"/>
<path d="M9.10156 7.75391L9.10937 7.20703H9.34375C9.40234 7.20703 9.44141 7.21484 9.46875 7.22656C9.49609 7.23438 9.51562 7.25391 9.53125 7.27734C9.54688 7.30078 9.55469 7.33203 9.55469 7.36719C9.55499 7.40477 9.54103 7.44106 9.51563 7.46875C9.48675 7.4958 9.44959 7.51232 9.41016 7.51562L9.46875 7.5625C9.48437 7.57813 9.50391 7.60937 9.52734 7.65234L9.59375 7.76172H9.46094L9.38281 7.63672L9.32813 7.55859C9.31865 7.54785 9.30653 7.53976 9.29297 7.53516C9.2752 7.52997 9.25679 7.52734 9.23828 7.52734H9.21484V7.75391H9.10156Z" fill="#309E3A"/>
<path d="M9.21875 7.44141H9.29688C9.35156 7.44141 9.38672 7.44141 9.39844 7.43359C9.41016 7.43359 9.42187 7.42188 9.42969 7.41406C9.4375 7.40625 9.44141 7.38672 9.44141 7.375C9.44141 7.35156 9.4375 7.33594 9.42578 7.32813C9.41797 7.31641 9.40234 7.30859 9.38672 7.30469H9.30859L9.21875 7.30078V7.4375V7.44141Z" fill="white"/>
<path d="M9.72656 7.23438L9.92969 7.24609C9.97266 7.24609 10.0078 7.25 10.0312 7.25781C10.0617 7.26884 10.0886 7.28771 10.1094 7.3125C10.1319 7.33981 10.1479 7.37186 10.1562 7.40625C10.168 7.44141 10.1719 7.48437 10.168 7.53516C10.1679 7.57503 10.1613 7.61462 10.1484 7.65234C10.1328 7.69141 10.1094 7.72266 10.082 7.74609C10.0593 7.76485 10.0326 7.7782 10.0039 7.78516C9.98047 7.79297 9.94531 7.79297 9.90625 7.79297L9.69922 7.78125L9.72656 7.23438Z" fill="#309E3A"/>
<path d="M9.83203 7.33203L9.8125 7.69531H9.96094C9.98047 7.69531 9.99609 7.6875 10.0078 7.67578C10.0195 7.66406 10.0313 7.64844 10.0391 7.625C10.0469 7.60156 10.0547 7.56641 10.0547 7.52344L10.0508 7.42578C10.0452 7.40518 10.0344 7.38636 10.0195 7.37109C10.0066 7.35805 9.9904 7.34862 9.97266 7.34375C9.94312 7.33717 9.91305 7.33325 9.88281 7.33203H9.83203Z" fill="white"/>
<path d="M12.4062 8.21094L12.5352 7.67969L12.707 7.71875L12.832 7.75781C12.8594 7.77344 12.8828 7.79687 12.8945 7.83203C12.9102 7.86328 12.9102 7.89844 12.9023 7.94141C12.8945 7.97266 12.8828 8 12.8633 8.01953C12.849 8.03668 12.831 8.05048 12.8108 8.05993C12.7905 8.06938 12.7684 8.07426 12.7461 8.07422C12.7187 8.07422 12.6797 8.06641 12.6289 8.05469L12.5625 8.03516L12.5156 8.23828L12.4062 8.21094Z" fill="#309E3A"/>
<path d="M12.6172 7.79688L12.5859 7.94531L12.6445 7.96094C12.6836 7.96875 12.7148 7.97656 12.7305 7.97266C12.7457 7.97055 12.7598 7.96378 12.771 7.95329C12.7822 7.94279 12.7899 7.92909 12.793 7.91406C12.793 7.89453 12.793 7.87891 12.7852 7.86328C12.7766 7.8474 12.7628 7.83498 12.7461 7.82812L12.6719 7.80859L12.6211 7.79688H12.6172Z" fill="white"/>
<path d="M12.9141 8.36328L13.0977 7.84766L13.3125 7.92578C13.3711 7.94531 13.4062 7.96484 13.4297 7.98047C13.4492 8 13.4648 8.01953 13.4687 8.05078C13.4727 8.08203 13.4766 8.10938 13.4687 8.14062C13.4531 8.17969 13.4297 8.20703 13.3984 8.22656C13.3672 8.24219 13.3281 8.24609 13.2812 8.23828C13.2969 8.25781 13.3125 8.27734 13.3203 8.30078L13.3516 8.40625L13.375 8.52734L13.2539 8.48438L13.2148 8.34375C13.2077 8.31195 13.1986 8.28063 13.1875 8.25C13.1823 8.23785 13.1743 8.22713 13.1641 8.21875C13.1562 8.20703 13.1406 8.19922 13.1133 8.19141L13.0938 8.18359L13.0156 8.40234L12.9141 8.36328Z" fill="#309E3A"/>
<path d="M13.125 8.10156L13.1992 8.12891C13.25 8.14844 13.2812 8.15625 13.2969 8.15625C13.3086 8.15625 13.3203 8.15625 13.332 8.14453C13.3437 8.13672 13.3516 8.125 13.3555 8.10937C13.3633 8.09375 13.3633 8.07812 13.3555 8.0625C13.3497 8.04736 13.3386 8.03486 13.3242 8.02734L13.2461 8L13.168 7.97266L13.1211 8.10156H13.125Z" fill="white"/>
<path d="M13.5547 8.34375C13.5682 8.29801 13.5907 8.25548 13.6211 8.21875C13.6409 8.19518 13.6647 8.17534 13.6914 8.16016C13.7157 8.14648 13.7421 8.13722 13.7696 8.13281C13.8086 8.13281 13.8477 8.13281 13.8907 8.14844C13.9256 8.15708 13.9583 8.17304 13.9865 8.19526C14.0148 8.21748 14.0381 8.24546 14.0547 8.27734C14.086 8.33984 14.086 8.41406 14.0625 8.5C14.0432 8.57383 13.9955 8.63702 13.9297 8.67578C13.8711 8.71094 13.8008 8.71484 13.7266 8.69141C13.6918 8.68254 13.6592 8.66649 13.6309 8.64429C13.6027 8.62209 13.5794 8.59423 13.5625 8.5625C13.5469 8.52835 13.5381 8.49144 13.5368 8.4539C13.5355 8.41636 13.5416 8.37893 13.5547 8.34375Z" fill="#309E3A"/>
<path d="M13.6641 8.37501C13.6485 8.4336 13.6446 8.48438 13.6641 8.52344C13.6836 8.56251 13.711 8.58594 13.7539 8.60157C13.793 8.61329 13.8321 8.60938 13.8711 8.58594C13.9102 8.56641 13.9336 8.52344 13.9532 8.46094C13.9727 8.40235 13.9727 8.35548 13.9532 8.31641C13.9455 8.29788 13.9338 8.28127 13.9189 8.26777C13.9041 8.25427 13.8864 8.2442 13.8672 8.23829C13.848 8.23165 13.8276 8.22927 13.8073 8.23129C13.7871 8.23331 13.7676 8.2397 13.75 8.25001C13.711 8.27344 13.6836 8.31251 13.6641 8.37501Z" fill="white"/>
<path d="M14.6211 9.10547L14.8711 8.62109L15.0781 8.72656C15.1172 8.74529 15.1528 8.77037 15.1836 8.80078C15.2031 8.82031 15.2148 8.84375 15.2148 8.875C15.2148 8.90625 15.2148 8.93359 15.1992 8.96094C15.1842 8.99606 15.1562 9.02404 15.1211 9.03906C15.082 9.04687 15.043 9.04687 15 9.03125C15.0156 9.05469 15.0234 9.07812 15.0312 9.09766C15.0391 9.12109 15.043 9.15625 15.0469 9.20703L15.0547 9.33203L14.9375 9.27344L14.9219 9.12891C14.92 9.09614 14.9161 9.06352 14.9102 9.03125C14.9075 9.01664 14.9007 9.00309 14.8906 8.99219L14.8438 8.96484L14.8242 8.95312L14.7188 9.15625L14.6211 9.10547Z" fill="#309E3A"/>
<path d="M14.8633 8.875L14.9375 8.91406C14.9844 8.9375 15.0156 8.95312 15.0273 8.95312C15.0391 8.95312 15.0547 8.95312 15.0664 8.94531C15.0781 8.94141 15.0859 8.92969 15.0937 8.91406C15.1016 8.89844 15.1055 8.88281 15.1016 8.86719C15.0967 8.85164 15.0872 8.83798 15.0742 8.82812C15.0514 8.81409 15.0279 8.80106 15.0039 8.78906L14.9258 8.75L14.8633 8.875Z" fill="white"/>
<path d="M16.6444 10.1054C16.6697 10.0653 16.7029 10.0307 16.7421 10.0039C16.7684 9.98703 16.7975 9.97512 16.828 9.9687C16.8564 9.96291 16.8856 9.96291 16.914 9.9687C16.953 9.97651 16.9882 9.99213 17.0233 10.0156C17.0537 10.0345 17.0799 10.0596 17.1 10.0892C17.1202 10.1188 17.134 10.1522 17.1405 10.1874C17.1522 10.2539 17.1327 10.3281 17.0858 10.4023C17.0466 10.4668 16.9834 10.5132 16.9101 10.5312C16.8751 10.5388 16.8389 10.5388 16.8039 10.5314C16.7689 10.524 16.7359 10.5093 16.7069 10.4882C16.6765 10.4693 16.6504 10.4442 16.6302 10.4146C16.6101 10.385 16.5963 10.3516 16.5897 10.3164C16.578 10.246 16.5976 10.1757 16.6444 10.1054Z" fill="#309E3A"/>
<path d="M16.7423 10.168C16.7032 10.2188 16.6915 10.2656 16.6993 10.3086C16.7022 10.3284 16.7092 10.3473 16.72 10.3642C16.7308 10.381 16.745 10.3954 16.7618 10.4063C16.8009 10.4336 16.8399 10.4414 16.879 10.4297C16.9181 10.418 16.9571 10.3906 16.9923 10.3359C17.0274 10.2813 17.0431 10.2344 17.0352 10.1953C17.0313 10.1563 17.0079 10.1211 16.9727 10.0938C16.9376 10.0664 16.8946 10.0625 16.8556 10.0742C16.8165 10.082 16.7774 10.1133 16.7384 10.168H16.7423Z" fill="white"/>
<path d="M11.7891 7.98828L11.8789 7.60547L12.1602 7.67187L12.1484 7.73438L11.9414 7.6875L11.9219 7.77344L12.1133 7.81641L12.0977 7.88281L11.9062 7.83594L11.8828 7.94141L12.0977 7.99219L12.082 8.05469L11.7891 7.98828Z" fill="#309E3A"/>
</svg>
